<mxfile host="Electron" modified="2023-05-07T23:36:47.202Z" agent="Mozilla/5.0 (Windows NT 10.0; Win64; x64) AppleWebKit/537.36 (KHTML, like Gecko) draw.io/21.1.2 Chrome/106.0.5249.199 Electron/21.4.3 Safari/537.36" etag="6uqzD2vNwOOj-fdnaR8S" version="21.1.2" type="device">
  <diagram name="Page-1" id="0nSHJWK5jWD1wGw_pH0D">
    <mxGraphModel dx="1098" dy="838" grid="1" gridSize="10" guides="1" tooltips="1" connect="1" arrows="1" fold="1" page="1" pageScale="1" pageWidth="850" pageHeight="1100" math="0" shadow="0">
      <root>
        <mxCell id="0" />
        <mxCell id="1" parent="0" />
        <mxCell id="L3qt2ds5aRoiILryj6BE-5" style="edgeStyle=orthogonalEdgeStyle;rounded=0;orthogonalLoop=1;jettySize=auto;html=1;" edge="1" parent="1" source="L3qt2ds5aRoiILryj6BE-1" target="L3qt2ds5aRoiILryj6BE-2">
          <mxGeometry relative="1" as="geometry" />
        </mxCell>
        <mxCell id="L3qt2ds5aRoiILryj6BE-1" value="Original Stack" style="outlineConnect=0;dashed=0;verticalLabelPosition=bottom;verticalAlign=top;align=center;html=1;shape=mxgraph.aws3.stack_aws_cloudformation;fillColor=#759C3E;gradientColor=none;" vertex="1" parent="1">
          <mxGeometry x="210" y="363" width="73.5" height="58.5" as="geometry" />
        </mxCell>
        <mxCell id="L3qt2ds5aRoiILryj6BE-7" style="edgeStyle=orthogonalEdgeStyle;rounded=0;orthogonalLoop=1;jettySize=auto;html=1;entryX=0;entryY=0.5;entryDx=0;entryDy=0;entryPerimeter=0;" edge="1" parent="1" source="L3qt2ds5aRoiILryj6BE-2" target="L3qt2ds5aRoiILryj6BE-3">
          <mxGeometry relative="1" as="geometry" />
        </mxCell>
        <mxCell id="L3qt2ds5aRoiILryj6BE-2" value="Change Set" style="outlineConnect=0;dashed=0;verticalLabelPosition=bottom;verticalAlign=top;align=center;html=1;shape=mxgraph.aws3.change_set;fillColor=#759C3E;gradientColor=none;" vertex="1" parent="1">
          <mxGeometry x="440" y="360" width="55.5" height="64.5" as="geometry" />
        </mxCell>
        <mxCell id="L3qt2ds5aRoiILryj6BE-8" style="edgeStyle=orthogonalEdgeStyle;rounded=0;orthogonalLoop=1;jettySize=auto;html=1;entryX=0;entryY=0.5;entryDx=0;entryDy=0;entryPerimeter=0;" edge="1" parent="1" source="L3qt2ds5aRoiILryj6BE-3" target="L3qt2ds5aRoiILryj6BE-4">
          <mxGeometry relative="1" as="geometry" />
        </mxCell>
        <mxCell id="L3qt2ds5aRoiILryj6BE-12" style="edgeStyle=orthogonalEdgeStyle;rounded=0;orthogonalLoop=1;jettySize=auto;html=1;entryX=0.4;entryY=1.133;entryDx=0;entryDy=0;entryPerimeter=0;" edge="1" parent="1" source="L3qt2ds5aRoiILryj6BE-3" target="L3qt2ds5aRoiILryj6BE-6">
          <mxGeometry relative="1" as="geometry">
            <Array as="points">
              <mxPoint x="678" y="510" />
              <mxPoint x="346" y="510" />
            </Array>
          </mxGeometry>
        </mxCell>
        <mxCell id="L3qt2ds5aRoiILryj6BE-3" value="Change Set" style="outlineConnect=0;dashed=0;verticalLabelPosition=bottom;verticalAlign=top;align=center;html=1;shape=mxgraph.aws3.change_set;fillColor=#759C3E;gradientColor=none;" vertex="1" parent="1">
          <mxGeometry x="650" y="360" width="55.5" height="64.5" as="geometry" />
        </mxCell>
        <mxCell id="L3qt2ds5aRoiILryj6BE-4" value="AWS CloudFormation" style="outlineConnect=0;dashed=0;verticalLabelPosition=bottom;verticalAlign=top;align=center;html=1;shape=mxgraph.aws3.cloudformation;fillColor=#759C3E;gradientColor=none;" vertex="1" parent="1">
          <mxGeometry x="860" y="345.75" width="76.5" height="93" as="geometry" />
        </mxCell>
        <mxCell id="L3qt2ds5aRoiILryj6BE-6" value="1. Create Change Set" style="text;html=1;align=center;verticalAlign=middle;resizable=0;points=[];autosize=1;strokeColor=none;fillColor=none;" vertex="1" parent="1">
          <mxGeometry x="290" y="360" width="140" height="30" as="geometry" />
        </mxCell>
        <mxCell id="L3qt2ds5aRoiILryj6BE-9" value="2. View Change Set" style="text;html=1;align=center;verticalAlign=middle;resizable=0;points=[];autosize=1;strokeColor=none;fillColor=none;" vertex="1" parent="1">
          <mxGeometry x="505" y="360" width="130" height="30" as="geometry" />
        </mxCell>
        <mxCell id="L3qt2ds5aRoiILryj6BE-10" value="3. Execute Change Set" style="text;html=1;align=center;verticalAlign=middle;resizable=0;points=[];autosize=1;strokeColor=none;fillColor=none;" vertex="1" parent="1">
          <mxGeometry x="705" y="360" width="150" height="30" as="geometry" />
        </mxCell>
        <mxCell id="L3qt2ds5aRoiILryj6BE-13" value="3. (optional) Create additional Change Sets" style="text;html=1;align=center;verticalAlign=middle;resizable=0;points=[];autosize=1;strokeColor=none;fillColor=none;" vertex="1" parent="1">
          <mxGeometry x="400" y="480" width="250" height="30" as="geometry" />
        </mxCell>
      </root>
    </mxGraphModel>
  </diagram>
</mxfile>
